<svg xmlns="http://www.w3.org/2000/svg" viewBox="0 0 1024 1024">
  <defs>
    <path id="topArc" d="M 104 512 A 408 408 0 0 1 920 512"/>
    <path id="bottomArc" d="M 920 512 A 408 408 0 0 1 104 512"/>
  </defs>

  <!-- Orange ring -->
  <circle cx="512" cy="512" r="340" fill="none" stroke="#f58600" stroke-width="44"/>

  <!-- Brand text -->
  <g fill="#b91500" font-family="Arial Black, Arial, Helvetica, sans-serif" font-weight="900" letter-spacing="4">
    <text font-size="98">
      <textPath href="#topArc" startOffset="50%" text-anchor="middle">DHANU COMPUTERS</textPath>
    </text>
    <text font-size="60">
      <textPath href="#bottomArc" startOffset="50%" text-anchor="middle">ONE STEP FOR DIGITAL LIFE</textPath>
    </text>
  </g>

  <!-- Monitor + stand -->
  <g fill="#b91500">
    <path d="M294 346 h436 a22 22 0 0 1 22 22 v228 a22 22 0 0 1 -22 22 h-436 a22 22 0 0 1 -22 -22 v-228 a22 22 0 0 1 22 -22zm24 46 a10 10 0 0 0 -10 10 v160 a10 10 0 0 0 10 10 h386 a10 10 0 0 0 10 -10 v-160 a10 10 0 0 0 -10 -10z"/>
    <rect x="450" y="618" width="124" height="48" rx="24"/>
    <path d="M394 676 h236 a82 82 0 0 1 82 82 h-400 a82 82 0 0 1 82 -82z"/>
  </g>

  <!-- WiFi -->
  <g fill="none" stroke="#f58600" stroke-width="14" stroke-linecap="round">
    <path d="M246 446 q64 -58 128 0"/>
    <path d="M265 474 q45 -40 90 0"/>
    <path d="M282 500 q28 -24 56 0"/>
  </g>
  <circle cx="310" cy="526" r="10" fill="#f58600"/>

  <!-- Bow -->
  <g fill="none" stroke-linecap="round" stroke-linejoin="round">
    <path d="M622 304 q106 10 148 88 q38 70 -14 140" stroke="#b91500" stroke-width="34"/>
    <path d="M748 454 q58 56 48 126 q-8 50 -32 90 q-24 46 -8 102" stroke="#b91500" stroke-width="30"/>
    <path d="M550 300 q54 14 94 2" stroke="#f58600" stroke-width="18"/>
    <path d="M742 448 q40 18 74 2" stroke="#f58600" stroke-width="18"/>
    <path d="M744 565 q44 -16 84 8" stroke="#f58600" stroke-width="18"/>

    <!-- grip wraps -->
    <path d="M687 398 q23 -17 49 -8" stroke="#ffffff" stroke-width="4"/>
    <path d="M693 411 q23 -16 50 -7" stroke="#ffffff" stroke-width="4"/>
    <path d="M699 424 q23 -15 50 -6" stroke="#ffffff" stroke-width="4"/>
    <path d="M723 524 q20 -14 43 -8" stroke="#ffffff" stroke-width="4"/>
    <path d="M729 536 q20 -13 44 -7" stroke="#ffffff" stroke-width="4"/>
    <path d="M736 548 q21 -12 44 -6" stroke="#ffffff" stroke-width="4"/>
  </g>

  <!-- Arrow + strings -->
  <g fill="none" stroke="#ef7b00" stroke-linecap="round" stroke-linejoin="round">
    <line x1="430" y1="286" x2="760" y2="698" stroke-width="5"/>
    <line x1="430" y1="286" x2="520" y2="550" stroke-width="5"/>
    <line x1="520" y1="550" x2="748" y2="372" stroke-width="5"/>
    <line x1="520" y1="550" x2="486" y2="544" stroke-width="5"/>
    <line x1="520" y1="550" x2="514" y2="586" stroke-width="5"/>
  </g>
  <polygon points="748,372 778,360 759,386" fill="none" stroke="#ef7b00" stroke-width="4"/>
  <polygon points="486,544 464,560 504,562" fill="none" stroke="#ef7b00" stroke-width="4"/>
  <polygon points="514,586 499,604 541,571" fill="none" stroke="#ef7b00" stroke-width="4"/>

  <!-- Since -->
  <text x="512" y="790" text-anchor="middle" fill="#b91500" font-family="Arial, Helvetica, sans-serif" font-size="56">since 2013</text>
</svg>
