<svg xmlns="http://www.w3.org/2000/svg" viewBox="0 0 512 512" role="img" aria-label="Dhanu Computers symbol">
  <!-- Transparent favicon symbol -->
  <defs>
    <linearGradient id="g1" x1="0" y1="0" x2="1" y2="1">
      <stop offset="0%" stop-color="#f9a126"/>
      <stop offset="100%" stop-color="#f07d00"/>
    </linearGradient>
    <linearGradient id="g2" x1="0" y1="0" x2="1" y2="0">
      <stop offset="0%" stop-color="#d81e10"/>
      <stop offset="100%" stop-color="#c71512"/>
    </linearGradient>
  </defs>
  <circle cx="256" cy="256" r="214" fill="none" stroke="url(#g1)" stroke-width="26"/>
  <rect x="142" y="158" width="222" height="146" rx="16" fill="url(#g2)"/>
  <rect x="160" y="176" width="186" height="96" rx="8" fill="white"/>
  <rect x="210" y="304" width="92" height="30" rx="15" fill="url(#g2)"/>
  <path d="M176 334h160c24 0 45 15 52 36H124c7-21 28-36 52-36z" fill="url(#g2)"/>
  <path d="M186 134c40 15 81 15 113-5" fill="none" stroke="#f4931f" stroke-width="9" stroke-linecap="round"/>
  <path d="M254 153c56 5 86 57 61 106" fill="none" stroke="url(#g2)" stroke-width="20" stroke-linecap="round"/>
  <line x1="146" y1="142" x2="301" y2="332" stroke="#f4931f" stroke-width="4" stroke-linecap="round"/>
</svg>
